<?xml version="1.0" encoding="UTF-8"?>
<svg id="Calque_2" data-name="Calque 2" xmlns="http://www.w3.org/2000/svg" viewBox="0 0 404.24 419.57">
  <defs>
    <style>
      .cls-1 {
        fill: #000;
        stroke-width: 0px;
      }
    </style>
  </defs>
  <g id="Layer_1" data-name="Layer 1">
    <path class="cls-1" d="M154.63,409.23c-19.65-5.5-37.95-12.72-54.89-23.24-36.32-22.55-62.94-53.64-81-92.16C7.93,270.79,2.03,246.44.46,221.03c-3.35-54.21,11.57-102.8,45.37-145.32C76.7,36.87,116.86,12.87,165.5,3.41c19.92-3.88,40.07-4.27,60.35-2.06,26.4,2.87,50.98,11.11,73.87,24.17,26.44,15.08,49.18,34.62,66.04,60.21,7.21,10.95,13.94,22.4,19.4,34.3,15.09,32.9,21.26,67.69,18.4,103.77-3.6,45.23-20.02,85.36-49.81,119.82-1.19,1.37-2.24,2.86-3.67,4.7,1.18,1.48,2.33,3.1,3.65,4.57,12.6,14.01,25.24,28,37.86,42,1.06,1.18,2.17,2.33,3.14,3.59,2.97,3.83,2.76,5.46-1.4,8.21-7.65,5.06-15.98,8.68-24.93,10.62-28.48,6.18-53.51-.09-74.33-21.08-.48-.48-.98-.95-1.51-1.37-.35-.28-.77-.48-1.73-1.05-42.98,22.07-88.37,27.41-136.2,15.42M91.89,269.98c26.22,48.19,80.58,80.64,145.09,63.79-1.32-1.8-2.31-3.44-3.56-4.84-15.64-17.4-31.33-34.75-46.98-52.15-5.03-5.59-4.82-7.86,1.57-11.61,18.2-10.69,37.7-13.82,58.41-9.68,8.03,1.61,14.84,5.73,22.02,9.39,7.06,3.6,12.75,8.37,18.11,13.85,2.7,2.76,5.2,5.71,7.85,8.52,1.21,1.29,2.56,2.45,3.82,3.63.9-.56,1.65-.79,2.02-1.3,23.6-32.48,33.09-68.66,25.47-108.14-7.99-41.39-31.12-72.44-68.75-92.06-26.49-13.81-54.77-17.05-83.41-9.81-53.65,13.57-90.37,57.5-96.68,113.13-3.04,26.84,1.76,52.43,15.01,77.26M98.83,297.38c-5.85-8.88-12.69-17.26-17.37-26.71-16.24-32.8-19.68-67.15-9.93-102.56,5.5-19.98,14.96-37.97,28.6-53.63,3.08-3.53,4.98-7.46,6.32-11.86,10.82-35.49,31.22-64.16,61.31-85.9,1.58-1.14,3.07-2.43,4.78-3.79-.85-.47-1.19-.81-1.52-.81-.9,0-1.82.04-2.7.23-30.6,6.4-58.66,18.39-83.35,37.81-24.94,19.61-43.5,44.25-56.91,72.84-9.93,21.16-14.95,43.71-17.77,66.76-.74,6.03-1.22,12.54.27,18.28,2.43,9.37,5.71,18.74,10.16,27.31,18.04,34.71,46,58.53,82.3,72.73,1.51.59,3.18.76,4.77,1.13.18-.33.35-.66.53-1-2.95-3.37-5.9-6.75-9.52-10.84M45.07,282.92c-11.62-10.83-21.32-23.31-30.56-36.29-.28,2.35-.14,4.38.33,6.33,7.79,32.3,22.38,61.14,44.3,86.15,11.92,13.6,25.1,25.79,40.42,35.63,25.08,16.11,52.48,25.24,81.85,29.77,14.76,2.28,27.61-.38,40.24-7.97,14.27-8.58,25.91-19.8,36.22-32.62,1.08-1.34,1.93-2.88,3-4.51-4.52-4.98-8.9-9.57-12.99-14.41-2.61-3.08-5.24-2.99-8.99-2.16-10.15,2.24-20.42,4.84-30.73,5.27-25.98,1.08-50.32-5.24-72.72-18.81-4.33-2.62-8.33-5.73-13.77-6.77-29.04-5.55-54.23-18.88-76.6-39.61M303.88,114.04c25.18,30.23,36.2,65,33.39,104.19-1.98,27.66-11.4,52.59-27.75,74.94-1.43,1.95-2.68,4.03-4.16,6.26,12.73,14.01,25.18,27.72,37.96,41.79,3.78-4.62,7.33-8.47,10.31-12.72,4.95-7.06,9.85-14.19,14.21-21.62,12.68-21.57,20.24-44.87,24.44-69.58,4.11-24.24.85-46.72-11.01-68.26-11.32-20.56-25.65-38.39-44.82-52.11-15.44-11.05-32.14-19.54-50.51-24.56-1.19-.32-2.54-.04-4.16-.04,7.37,7.21,14.41,14.09,22.11,21.71M372.61,115.2c-16.34-31.15-38.6-56.77-68.66-75.62-29.31-18.38-60.76-29.12-95.48-29.59-3.32-.05-6.93.31-9.94,1.57-6.67,2.8-13.34,5.83-19.5,9.59-27.33,16.65-45.65,40.97-58.39,69.88-.32.72-.17,1.65-.26,2.77,1.05-.29,1.77-.3,2.25-.64,12.96-9.18,26.42-17.25,42.26-20.55,6.34-1.32,12.5-3.68,18.89-4.63,23.64-3.49,46.56-.61,68.69,8.55,3.29,1.36,6.93,2.36,10.46,2.55,24.57,1.33,46.77,9.88,67.5,22.44,21.58,13.07,39.34,30.24,52.63,51.85,1.11,1.81,2.49,3.46,3.75,5.19l1.43-.77c-3.65-14.38-8.57-28.31-15.64-42.58M265.71,273.43c-3.8-1.91-7.48-4.14-11.43-5.67-12.82-4.97-26.04-5.64-39.45-2.8-6.59,1.4-13.04,3.21-19.32,7,1.17,1.51,1.9,2.6,2.77,3.56,20.99,23.33,42.01,46.64,62.99,69.98,12.25,13.63,24.5,27.27,36.68,40.96,14.65,16.47,32.89,24.5,54.96,23.51,10.95-.49,21.21-3.52,31.08-8.66-.6-1.1-.82-1.77-1.24-2.24-29.05-32.18-58.03-64.42-87.24-96.46-9.15-10.03-17.48-20.96-29.81-29.18M274.3,374.16c-2.12-2.22-4.23-4.43-6.8-7.13-10.16,14.41-22.83,25.26-35.94,35.78,18.47-2.96,36.01-7.94,52.93-17.01-3.61-4.14-6.57-7.53-10.18-11.65Z"/>
  </g>
</svg>